PathFileType	4	(X/Y/Z)	C:\Users\dbl\Desktop\20210112\20210112\bx_n_5_1802.trc
DataRate	CameraRate	NumFrames	NumMarkers	Units	OrigDataRate	OrigDataStartFrame	OrigNumFrames
50.00	50.00	       4	43	mm	50.00	1	       523
Frame#	Time	Top.Head			R.Acromium			L.Acromium			Sternum			R.ASIS			L.ASIS			V.Sacral			R.Thigh.Upper			R.Thigh.Front			R.Thigh.Rear			R.Knee.Lat			R.Knee.Med			R.Shank.Upper			R.Shank.Front			R.Shank.Rear			R.Ankle.Lat			R.Midfoot.Lat			R.Toe.Lat			R.Toe.Tip			R.Toe.Med			R.Ankle.Med			R.Midfoot.Sup			R.Heel			L.Thigh.Upper			L.Thigh.Front			L.Thigh.Rear			L.Knee.Lat			L.Knee.Med			L.Shank.Upper			L.Shank.Front			L.Shank.Rear			L.Ankle.Lat			L.Midfoot.Lat			L.Toe.Lat			L.Toe.Tip			L.Toe.Med			L.Ankle.Med			L.Midfoot.Sup			L.Heel			origin1 front left			origin2 front right			origin 3 back right			origin 4 back leftt			
		X1	Y1	Z1	X2	Y2	Z2	X3	Y3	Z3	X4	Y4	Z4	X5	Y5	Z5	X6	Y6	Z6	X7	Y7	Z7	X8	Y8	Z8	X9	Y9	Z9	X10	Y10	Z10	X11	Y11	Z11	X12	Y12	Z12	X13	Y13	Z13	X14	Y14	Z14	X15	Y15	Z15	X16	Y16	Z16	X17	Y17	Z17	X18	Y18	Z18	X19	Y19	Z19	X20	Y20	Z20	X21	Y21	Z21	X22	Y22	Z22	X23	Y23	Z23	X24	Y24	Z24	X25	Y25	Z25	X26	Y26	Z26	X27	Y27	Z27	X28	Y28	Z28	X29	Y29	Z29	X30	Y30	Z30	X31	Y31	Z31	X32	Y32	Z32	X33	Y33	Z33	X34	Y34	Z34	X35	Y35	Z35	X36	Y36	Z36	X37	Y37	Z37	X38	Y38	Z38	X39	Y39	Z39	X40	Y40	Z40	X41	Y41	Z41	X42	Y42	Z42	X43	Y43	Z43	

1	0.000	-659.30023	128.76030	1847.90796	-670.93243	-64.68279	1538.52661	-698.34045	298.14825	1525.04980	-586.52167	116.38821	1352.74207	-580.53815	-0.34625	1053.62927	-587.26318	248.66650	1064.47351	-784.93713	102.12039	1052.74768	-647.66998	-66.22894	871.25824	-573.72253	0.13541	801.97833	-671.33984	-56.65844	756.16547	-695.98071	-29.71745	614.22150	-685.70648	79.64658	572.26154	-705.86469	-27.73695	568.10315	-658.41724	22.95677	516.69574	-751.59857	-41.41095	489.17392	-756.21954	-16.25889	207.72290	-649.36597	-66.35287	163.06841	-608.03418	-74.08321	159.41774	-548.81268	-31.14734	163.94765	-597.34375	26.26922	165.95996	-716.23389	73.52776	215.14404	-672.23468	55.38335	155.66939	-791.45557	42.78658	175.79672	-671.81329	290.47546	871.09259	-571.02051	218.67308	813.96497	-682.60791	274.77307	742.95093	-715.38123	254.27588	642.29517	-680.67664	146.69537	577.11401	-718.51270	249.65149	576.35339	-666.29803	208.03223	533.64636	-760.80890	259.68546	502.35248	-767.92023	226.04248	205.92485	-661.23846	298.21234	157.46190	-624.68585	306.74109	158.52074	-556.23969	257.02237	164.65434	-591.64105	219.35866	174.12135	-711.53925	152.75491	216.12508	-674.32690	171.51421	157.25987	-795.31628	176.88283	184.94373	-528.16821	304.10495	146.35884	-517.68280	-72.92346	143.59117	-875.85522	-78.73365	141.22168	-882.56006	296.11014	144.61603	
2	0.020	-659.13867	128.74258	1847.91113	-670.78046	-64.80859	1538.59387	-698.18127	298.12582	1525.15527	-586.22491	116.21841	1352.71924	-580.46185	-0.36654	1053.58069	-587.27130	248.53764	1064.50500	-784.78857	102.03739	1052.75671	-647.67029	-66.33031	871.25598	-573.65973	-0.05137	802.07880	-671.28644	-56.89529	756.22083	-695.96692	-29.77022	614.14117	-685.49750	79.48724	572.29675	-705.83679	-27.78657	568.04138	-658.49170	22.90131	516.62988	-751.63470	-41.44802	489.23322	-756.24152	-16.25751	207.71481	-649.33423	-66.36963	163.10797	-608.10126	-73.96063	159.32028	-548.74713	-31.22400	164.06889	-597.28497	26.20691	166.05403	-716.18658	73.59281	215.01714	-671.80841	55.72577	155.98459	-791.42615	42.79149	175.77670	-671.83240	290.35809	871.16071	-570.98602	218.52922	813.84778	-682.53827	274.48059	742.75641	-715.33716	254.23042	642.24371	-680.74792	146.62280	577.24829	-718.47449	249.60143	576.27295	-666.22009	207.95937	533.68079	-760.81653	259.65601	502.38083	-767.87701	226.05736	205.86110	-661.11267	298.25058	157.59174	-624.61609	306.76636	158.50424	-556.17914	256.96719	164.70686	-591.67084	219.43121	174.12994	-711.47607	152.73328	216.08446	-674.27881	171.45357	157.25533	-795.27521	176.81180	184.86208	-528.22247	304.07043	146.32166	-517.67780	-72.93790	143.58920	-875.90125	-78.72613	141.20590	-882.58521	296.09494	144.55313	
3	0.040	-658.95294	128.72374	1847.91479	-670.60504	-64.92722	1538.66296	-697.99670	298.09119	1525.25488	-585.97723	116.03848	1352.72314	-580.40808	-0.44164	1053.52551	-587.25311	248.42323	1064.52075	-784.64661	101.92462	1052.75098	-647.65033	-66.44247	871.25952	-573.62988	-0.20430	802.12598	-671.25433	-57.05278	756.25867	-695.97400	-29.80604	614.08270	-685.40137	79.36092	572.35150	-705.81354	-27.82417	567.98822	-658.53888	22.86628	516.58765	-751.66571	-41.47667	489.26022	-756.25470	-16.24620	207.70842	-649.32037	-66.37466	163.12923	-608.14600	-73.86231	159.25854	-548.69922	-31.28077	164.14859	-597.27356	26.18144	166.10283	-716.17169	73.62866	214.94991	-671.48877	55.93690	156.22919	-791.42059	42.79585	175.76903	-671.84149	290.25491	871.20410	-570.97095	218.39551	813.75842	-682.49341	274.19110	742.57642	-715.31219	254.18282	642.21643	-680.77966	146.55756	577.33075	-718.44653	249.52888	576.19525	-666.18707	207.87878	533.67938	-760.82251	259.61679	502.39447	-767.85577	226.05731	205.82684	-661.03180	298.27405	157.68402	-624.57867	306.78366	158.49159	-556.13464	256.93826	164.74002	-591.69244	219.47205	174.13458	-711.42859	152.70613	216.05275	-674.25140	171.41823	157.25519	-795.24896	176.77238	184.81769	-528.25311	304.05945	146.30690	-517.68115	-72.95599	143.58716	-875.92114	-78.72266	141.21056	-882.60016	296.09949	144.52927	
4	0.060	-658.73767	128.68016	1847.91479	-670.40527	-65.03111	1538.72034	-697.79138	298.04703	1525.34131	-585.79913	115.85762	1352.75598	-580.36377	-0.58140	1053.47742	-587.21405	248.33688	1064.51367	-784.52393	101.78531	1052.74023	-647.60748	-66.56570	871.26501	-573.63245	-0.30790	802.12073	-671.24023	-57.14487	756.27698	-696.00281	-29.82320	614.04712	-685.44073	79.26013	572.39600	-705.80011	-27.84820	567.95050	-658.56091	22.84810	516.56830	-751.69159	-41.50227	489.24646	-756.26215	-16.23050	207.70189	-649.32428	-66.37621	163.13448	-608.16516	-73.80898	159.24603	-548.68005	-31.31428	164.18007	-597.30328	26.18588	166.10371	-716.21277	73.60546	214.96101	-671.32196	55.99025	156.37352	-791.43097	42.79444	175.76740	-671.84119	290.16537	871.24011	-570.97162	218.28548	813.71552	-682.48871	273.92096	742.42218	-715.31305	254.13193	642.21729	-680.75970	146.49927	577.35309	-718.41864	249.44847	576.13257	-666.21393	207.79784	533.63037	-760.81586	259.57510	502.38702	-767.86060	226.04311	205.83777	-661.00513	298.27161	157.72990	-624.58423	306.78317	158.47820	-556.11163	256.94357	164.74443	-591.70770	219.47810	174.13182	-711.41412	152.67461	216.05481	-674.24457	171.40910	157.25734	-795.24854	176.76997	184.82784	-528.25665	304.08203	146.31451	-517.69147	-72.96574	143.57393	-875.91980	-78.71123	141.22928	-882.59949	296.11813	144.54700	
